<svg xmlns="http://www.w3.org/2000/svg" viewBox="0 0 683.23 125.01"><defs><style>.cls-1,.cls-2{fill:#fff;}.cls-2{font-size:72px;font-family:OpenSans-Bold, Open Sans;font-weight:700;}</style></defs><g id="Layer_2" data-name="Layer 2"><g id="Ñëîé_1" data-name="Ñëîé 1"><ellipse class="cls-1" cx="76.84" cy="18.38" rx="18.46" ry="13.9" transform="translate(47.38 91.69) rotate(-81.56)"/><ellipse class="cls-1" cx="104.97" cy="34.28" rx="16.45" ry="12.74" transform="translate(31.23 116.48) rotate(-66.19)"/><ellipse class="cls-1" cx="41.54" cy="18.38" rx="13.9" ry="18.46" transform="translate(-2.25 6.3) rotate(-8.44)"/><ellipse class="cls-1" cx="13.42" cy="34.28" rx="12.74" ry="16.45" transform="translate(-12.7 8.34) rotate(-23.81)"/><path class="cls-1" d="M91.22,48.69a30.09,30.09,0,0,0-9.92-2.43,27.23,27.23,0,0,0-10.6,1.6c-6.65,2.44-11.56,8.58-11.56,8.58s-5-6.11-11.61-8.51a27.68,27.68,0,0,0-11.16-1.49A28.94,28.94,0,0,0,27,48.89c-14.51,6.56-17.08,23.85-10.8,36.7a45.23,45.23,0,0,0,8.7,11.8,206.64,206.64,0,0,0,25.64,21.79c1.73,1.27,8.81,5.83,8.81,5.83s7.05-4.61,8.77-5.89A207.15,207.15,0,0,0,93.63,97.19a45.21,45.21,0,0,0,8.63-11.86C108.46,72.44,105.77,55.17,91.22,48.69Z"/><text class="cls-2" transform="translate(135.49 88.1)">CATS FOR STUD</text></g></g></svg>