<svg xmlns="http://www.w3.org/2000/svg" viewBox="0 0 514.55 543.35"><defs><style>.cls-1{fill:#d82521;}</style></defs><g id="Layer_2" data-name="Layer 2"><g id="Ñëîé_1" data-name="Ñëîé 1"><ellipse class="cls-1" cx="333.99" cy="79.88" rx="80.25" ry="60.4" transform="matrix(0.15, -0.99, 0.99, 0.15, 205.93, 398.52)"/><ellipse class="cls-1" cx="456.22" cy="149.01" rx="71.48" ry="55.39" transform="translate(135.72 506.26) rotate(-66.19)"/><ellipse class="cls-1" cx="180.57" cy="79.88" rx="60.4" ry="80.25" transform="translate(-9.77 27.38) rotate(-8.44)"/><ellipse class="cls-1" cx="58.33" cy="149.01" rx="55.39" ry="71.48" transform="translate(-55.19 36.23) rotate(-23.81)"/><path class="cls-1" d="M396.46,211.64a130.13,130.13,0,0,0-43.11-10.57,118.07,118.07,0,0,0-46,7c-28.91,10.61-50.25,37.27-50.25,37.27s-21.52-26.53-50.5-37a120.32,120.32,0,0,0-48.49-6.51,127.28,127.28,0,0,0-40.63,10.66C54.36,241,43.19,316.15,70.51,372c9.58,19.58,22.5,35.7,37.82,51.32,33.81,34.49,72.14,65.94,111.41,94.67,7.54,5.52,38.3,25.37,38.3,25.37s30.63-20,38.14-25.6c39.07-29,77.19-60.65,110.78-95.34,15.21-15.71,28-31.91,37.48-51.55C471.39,314.86,459.72,239.79,396.46,211.64Z"/></g></g></svg>